<?xml version="1.0" standalone="no"?>
<!DOCTYPE svg PUBLIC "-//W3C//DTD SVG 20010904//EN"
 "http://www.w3.org/TR/2001/REC-SVG-20010904/DTD/svg10.dtd">
<svg version="1.0" xmlns="http://www.w3.org/2000/svg"
 width="1280.000000pt" height="908.000000pt" viewBox="0 0 1280.000000 908.000000"
 preserveAspectRatio="xMidYMid meet">
<g transform="translate(0.000000,908.000000) scale(0.100000,-0.100000)"
fill="#000000" stroke="none">
<path d="M450 9071 c-8 -5 -39 -19 -68 -32 -63 -27 -134 -100 -165 -167 -17
-37 -21 -67 -22 -142 0 -88 3 -101 33 -162 22 -45 50 -82 84 -112 l51 -45 -12
-278 c-33 -774 -59 -1220 -146 -2548 -113 -1726 -150 -2391 -174 -3160 -6
-176 -16 -468 -22 -650 -6 -181 -9 -483 -7 -670 6 -358 26 -991 33 -1012 5
-16 555 -19 555 -3 0 5 8 13 18 19 9 5 220 57 467 115 365 86 453 110 468 127
14 18 93 39 425 114 414 95 662 156 877 218 98 29 600 200 735 251 30 12 356
114 705 221 117 36 742 214 1038 296 193 53 719 177 992 233 548 112 955 159
1410 159 395 1 528 -12 930 -94 282 -58 447 -150 544 -304 23 -36 47 -65 54
-65 6 0 39 7 72 14 174 41 502 89 810 118 189 17 931 18 1120 0 331 -31 608
-72 830 -123 274 -63 395 -83 395 -63 0 10 -81 507 -93 574 l-12 64 -110 23
c-264 54 -598 101 -860 122 -337 27 -419 31 -680 31 -454 0 -853 -31 -1220
-95 -77 -13 -167 -27 -200 -30 -33 -3 -79 -8 -101 -11 -38 -4 -46 -1 -90 37
-132 115 -517 239 -874 284 -522 64 -1074 21 -1865 -146 -264 -56 -422 -96
-1115 -284 -333 -90 -670 -182 -750 -203 -781 -212 -1824 -487 -1920 -506 -41
-8 -201 -33 -355 -55 -295 -43 -491 -83 -511 -103 -6 -7 -19 -53 -28 -103 -29
-154 -98 -429 -110 -442 -6 -6 -65 -21 -131 -33 -66 -12 -211 -39 -323 -61
-223 -43 -238 -45 -244 -26 -4 10 63 335 116 567 112 486 328 1576 405 2050
243 1490 255 2744 35 3769 -82 381 -237 881 -360 1159 -15 33 -21 59 -15 65 5
5 55 -2 122 -17 63 -14 183 -34 266 -43 84 -9 157 -19 163 -23 17 -10 125
-612 184 -1030 98 -687 138 -1123 167 -1835 12 -279 7 -857 -7 -1006 -6 -58
-4 -69 14 -87 15 -15 30 -19 63 -16 127 10 281 26 334 35 33 5 182 27 330 49
379 58 657 118 1730 380 994 242 1447 341 1965 429 345 59 718 111 795 111 61
0 75 8 75 40 0 16 7 30 16 34 9 3 136 6 282 6 572 0 973 -75 1316 -247 48 -24
90 -42 93 -39 3 2 7 33 10 68 7 92 19 116 62 128 107 29 442 75 696 95 208 17
749 20 960 5 493 -35 974 -112 1445 -230 89 -22 167 -37 171 -33 13 13 40 350
37 452 l-3 95 -132 43 c-356 116 -715 184 -1233 235 -175 17 -953 17 -1140 0
-413 -38 -778 -88 -802 -111 -11 -10 -21 -42 -26 -79 -5 -35 -14 -68 -19 -73
-8 -8 -30 -2 -75 19 -135 65 -368 136 -573 176 -265 52 -680 81 -981 70 -149
-5 -193 -4 -199 6 -8 14 -29 210 -41 381 -6 101 -5 108 14 118 64 34 760 39
980 6 57 -8 107 -17 110 -19 4 -2 110 -25 236 -50 298 -60 404 -103 513 -209
24 -22 45 -39 47 -36 5 5 21 132 32 252 3 37 12 73 19 81 22 21 384 87 645
116 273 31 434 40 750 40 614 0 993 -52 1583 -216 219 -61 358 -94 391 -94 10
0 17 15 21 48 3 26 17 109 31 184 36 195 49 317 37 329 -20 20 -295 129 -460
182 -350 114 -810 199 -1223 227 -187 13 -665 13 -845 0 -292 -20 -793 -91
-859 -121 -34 -16 -29 10 -66 -374 -14 -145 -19 -175 -30 -175 -5 0 -30 23
-57 52 -38 40 -73 63 -168 109 -186 89 -376 142 -710 198 -233 39 -413 46
-749 32 -187 -9 -272 -9 -279 -2 -10 10 -18 114 -33 453 -6 122 -5 148 7 152
29 10 241 27 419 33 353 12 743 -34 1063 -124 96 -27 391 -159 447 -200 19
-14 52 -42 72 -61 21 -20 40 -33 44 -30 12 13 55 319 61 436 3 67 11 129 17
137 17 23 315 79 581 109 764 86 1716 -8 2465 -242 85 -27 210 -66 278 -87 73
-23 126 -35 131 -29 4 5 36 95 71 199 35 105 65 195 67 201 10 29 -341 213
-604 318 -321 128 -917 216 -1453 216 -383 0 -993 -55 -1394 -126 -106 -18
-111 -14 -100 86 5 41 9 113 9 160 0 74 -4 93 -29 143 -37 76 -117 155 -203
200 -82 43 -313 134 -444 176 -210 66 -526 137 -789 175 -231 34 -671 73 -690
61 -6 -3 -10 -15 -10 -26 0 -11 -6 -21 -12 -24 -7 -2 -126 -9 -265 -15 -261
-11 -497 -32 -833 -76 -366 -47 -505 -64 -676 -84 -452 -52 -854 -140 -1805
-395 -680 -183 -983 -252 -1349 -309 -521 -81 -923 -7 -1382 256 -68 39 -108
67 -107 77 0 9 24 34 52 56 38 30 62 60 87 109 32 64 35 76 35 160 0 79 -4 99
-29 154 -38 81 -112 151 -193 180 -61 22 -126 28 -153 13z"/>
<path d="M7715 4460 c-676 -39 -737 -44 -1070 -91 -305 -42 -779 -133 -1103
-209 -92 -22 -237 -56 -322 -75 -85 -20 -382 -94 -660 -165 -1151 -295 -1739
-421 -2335 -500 -88 -11 -169 -23 -181 -25 -19 -4 -21 -15 -33 -162 -6 -87
-16 -207 -22 -267 -7 -70 -7 -112 -1 -118 23 -23 714 97 1272 222 235 52 627
147 1236 299 1193 297 1818 420 2489 490 110 12 242 26 294 32 131 14 892 32
1086 26 128 -4 180 -10 257 -30 106 -28 255 -100 320 -153 47 -40 54 -41 63
-13 9 26 30 34 162 58 382 71 574 83 1303 85 464 1 638 -2 710 -12 229 -33
431 -66 729 -122 176 -33 326 -60 334 -60 11 0 15 44 20 248 6 214 5 249 -8
258 -44 33 -527 140 -845 189 -669 101 -1520 100 -2185 -1 -55 -9 -118 -18
-140 -21 -56 -8 -75 -20 -91 -59 -8 -19 -18 -34 -24 -34 -5 0 -36 16 -69 35
-124 73 -308 130 -511 159 -128 19 -485 27 -675 16z"/>
<path d="M7940 3425 c-312 -16 -496 -34 -805 -75 -226 -31 -395 -58 -558 -91
-83 -17 -177 -35 -207 -40 -187 -28 -747 -157 -1580 -363 -1366 -338 -1945
-455 -2660 -536 -102 -11 -190 -23 -196 -25 -6 -2 -14 -25 -18 -52 -18 -127
-66 -510 -66 -525 0 -26 44 -23 280 18 512 88 961 195 1745 414 746 209 812
226 1310 340 305 69 741 169 940 215 813 188 1521 275 1993 245 338 -21 574
-67 758 -146 124 -54 188 -108 200 -169 8 -42 7 -42 149 -10 422 96 832 137
1385 138 533 0 949 -34 1498 -123 100 -17 188 -30 194 -30 21 0 -16 499 -38
520 -19 17 -457 103 -690 135 -160 21 -447 52 -624 66 -243 20 -941 17 -1175
-4 -267 -25 -465 -52 -657 -89 l-108 -21 -74 51 c-97 65 -169 98 -263 122
-168 43 -380 53 -733 35z"/>
<path d="M8563 1461 c-52 -44 -143 -70 -323 -92 -514 -62 -814 -202 -984 -458
l-48 -72 7 -132 c8 -148 30 -366 38 -373 3 -3 28 39 56 93 63 122 124 192 255
290 109 82 162 109 299 154 89 28 385 98 507 119 93 15 415 88 479 108 63 20
90 50 98 110 8 60 -3 88 -53 143 -53 56 -111 92 -191 120 -75 25 -102 24 -140
-10z"/>
<path d="M10720 949 c-156 -11 -345 -29 -430 -39 -432 -54 -886 -131 -1556
-266 -152 -30 -197 -35 -385 -40 -244 -8 -289 -2 -392 51 -80 41 -93 40 -182
-16 -185 -117 -275 -239 -275 -376 0 -127 83 -197 279 -236 268 -54 681 2
1538 209 518 125 769 173 1173 229 435 59 1017 44 1515 -41 228 -39 547 -113
728 -168 44 -14 47 -14 47 2 0 16 -156 492 -164 499 -4 5 -393 97 -489 117
-130 27 -357 57 -541 71 -193 16 -685 18 -866 4z"/>
</g>
</svg>
